<svg width="43" height="15" viewBox="0 0 43 15" fill="none" xmlns="http://www.w3.org/2000/svg">
<path d="M33.6695 1.47097L37.1989 0.812903V14.8258H33.6695V1.47097ZM38.8235 1.47097V14.8452H42.3529V0.812903L38.8235 1.47097ZM28.6648 14.8452H32.1942V4.5871H28.6648V14.8452ZM5.35948 6.03871C4.9113 6 3.88422 5.94194 3.88422 4.97419C3.88422 3.8129 5.37815 3.8129 5.9197 3.8129C6.89076 3.8129 8.1606 4.10323 9.07563 4.39355C9.07563 4.39355 9.57983 4.5871 10.0093 4.76129L10.0467 4.78065V4.74194V1.60645L9.99066 1.5871C8.92624 1.2 7.67507 0.832258 5.37815 0.832258C1.40056 0.812903 0 3.2129 0 5.28387C0 6.46452 0.485528 9.25161 5.04202 9.58064C5.43417 9.6 6.44258 9.65806 6.44258 10.6645C6.44258 11.4774 5.60224 11.9613 4.20168 11.9613C2.65173 11.9613 1.1578 11.5548 0.242764 11.1677V14.4387C1.60598 14.8065 3.13725 15 4.94865 15C8.83287 15 10.5696 12.7355 10.5696 10.471C10.5696 7.91613 8.62745 6.27097 5.35948 6.03871ZM26.6667 4.43226C23.4174 4.54839 21.7554 6.05806 21.7554 9.05806V14.8258H25.3035V10.1419C25.3035 8.34194 25.5275 7.56774 27.6004 7.49032V4.49032C27.2642 4.4129 26.6667 4.43226 26.6667 4.43226ZM17.1055 4.56774C17.0308 4.78064 16.4706 6.42581 15.0887 8.12903V0.812903L11.4659 1.56774V14.8452H15.1074V10.7419C16.1531 12.3871 16.676 14.8452 16.676 14.8452H21.0271C20.5976 12.9871 18.7115 9.56129 18.7115 9.56129C20.4108 7.33548 21.1391 4.97419 21.2698 4.56774H17.1055ZM30.4202 3.6C31.3725 3.6 32.1569 2.7871 32.1569 1.8C32.1569 0.812903 31.3725 0 30.4202 0C29.4678 0 28.6835 0.812903 28.6835 1.8C28.6835 2.7871 29.4678 3.6 30.4202 3.6Z" fill="#436FA2"/>
</svg>
