<svg width="44" height="14" viewBox="0 0 44 14" fill="none" xmlns="http://www.w3.org/2000/svg">
<path fill-rule="evenodd" clip-rule="evenodd" d="M13.0892 13.6097L17.1227 0.260254H20.7398L16.6803 13.6097H13.0892Z" fill="#436FA2"/>
<path fill-rule="evenodd" clip-rule="evenodd" d="M11.4498 0.286133L8.22305 5.93297C7.39033 7.41624 6.92193 8.17089 6.68773 9.10769H6.63569C6.68773 7.91067 6.5316 6.45342 6.50558 5.64673L6.14126 0.286133H0.0520446L0 0.650445C1.56134 0.650445 2.49814 1.43111 2.73234 3.0445L3.92937 13.6356H7.67658L15.223 0.286133H11.4498Z" fill="#436FA2"/>
<path fill-rule="evenodd" clip-rule="evenodd" d="M39.5279 13.6096L39.4238 11.6319H34.9219L34.0112 13.6096H30.0818L37.1859 0.286133H42L43.197 13.6096H39.5279ZM39.1115 5.75082C39.0595 4.76197 39.0335 3.43483 39.1115 2.62814H39.0595C38.8513 3.2787 37.8885 5.28242 37.4721 6.24524L36.145 9.15974H39.3197L39.1115 5.75082Z" fill="#436FA2"/>
<path fill-rule="evenodd" clip-rule="evenodd" d="M24.5131 14C21.9629 14 20.2715 13.1933 19.0745 12.4647L20.7919 9.83643C21.8849 10.4349 22.7176 11.1375 24.6953 11.1375C25.3198 11.1375 25.9444 10.9814 26.2826 10.3829C26.7771 9.52416 26.1786 9.05576 24.7473 8.24907L24.0447 7.80669C21.9629 6.37547 21.0522 5.02231 22.041 2.65428C22.6655 1.14498 24.331 0 27.0633 0C28.9629 0 30.7325 0.806692 31.7473 1.61338L29.7696 3.92937C28.7548 3.12268 27.922 2.70632 26.9592 2.70632C26.2046 2.70632 25.6061 2.99257 25.4239 3.40892C25.0596 4.16357 25.554 4.65799 26.647 5.33457L27.4797 5.85502C30.0299 7.4684 30.6284 9.13383 29.9778 10.6952C28.9109 13.4015 26.751 14 24.5131 14Z" fill="#436FA2"/>
</svg>
