<svg width="92" height="24" viewBox="0 0 92 24" fill="none" xmlns="http://www.w3.org/2000/svg">
<g clip-path="url(#clip0_51_91)">
<path fill-rule="evenodd" clip-rule="evenodd" d="M12.0232 0C13.9265 0 15.6905 0.417795 17.2689 1.20696C17.501 1.34623 17.7795 1.43907 18.0116 1.57834L16.8975 2.55319L15.2263 0.83559L12.441 3.34236L10.7698 1.53191L5.5706 6.26692L8.91296 9.93424L7.61315 11.0948L10.9091 14.8085L9.60929 15.9691L14.2979 21.2147L17.0832 18.6615L19.4971 21.4004C19.0329 21.7718 18.4758 22.1431 17.9188 22.4681C16.1547 23.4429 14.1586 24.0464 12.0232 24.0464C5.38491 24 0 18.6151 0 12.0232C0 5.43133 5.38491 0 12.0232 0Z" fill="#436FA2"/>
<path fill-rule="evenodd" clip-rule="evenodd" d="M9.79504 11.2341L12.6732 8.68091L15.2264 11.5126L12.3947 14.1122L9.79504 11.2341Z" fill="#436FA2"/>
<path fill-rule="evenodd" clip-rule="evenodd" d="M11.8375 16.1548L14.7157 13.6016L17.2689 16.4797L14.3907 19.0329L11.8375 16.1548Z" fill="#436FA2"/>
<path fill-rule="evenodd" clip-rule="evenodd" d="M7.75244 6.35983L10.6306 3.80664L13.1838 6.63836L10.3521 9.23798L7.75244 6.35983Z" fill="#436FA2"/>
<path fill-rule="evenodd" clip-rule="evenodd" d="M12.998 4.96725L15.1334 3.06396L17.0832 5.19936L14.9478 7.14907L12.998 4.96725Z" fill="#436FA2"/>
<path fill-rule="evenodd" clip-rule="evenodd" d="M16.8047 13.8337L18.9401 11.884L20.8898 14.0194L18.7544 15.9691L16.8047 13.8337Z" fill="#436FA2"/>
<path fill-rule="evenodd" clip-rule="evenodd" d="M18.7079 18.1509L20.8433 16.2012L22.7466 18.3366L20.6112 20.2863L18.7079 18.1509Z" fill="#436FA2"/>
<path fill-rule="evenodd" clip-rule="evenodd" d="M19.5436 8.21652L20.9827 6.96313L22.2825 8.35578L20.8434 9.65559L19.5436 8.21652Z" fill="#436FA2"/>
<path fill-rule="evenodd" clip-rule="evenodd" d="M17.7332 3.99219L19.1722 2.69238L20.4256 4.13145L19.033 5.43126L17.7332 3.99219Z" fill="#436FA2"/>
<path fill-rule="evenodd" clip-rule="evenodd" d="M21.4004 12.4876L22.793 11.1877L24.0928 12.6268L22.6538 13.8802L21.4004 12.4876Z" fill="#436FA2"/>
<path fill-rule="evenodd" clip-rule="evenodd" d="M14.9941 9.28439L17.1295 7.3811L19.0328 9.5165L16.8974 11.4198L14.9941 9.28439Z" fill="#436FA2"/>
<path fill-rule="evenodd" clip-rule="evenodd" d="M57.0522 7.38107L57.0058 7.42749L56.9594 7.38107C56.4488 6.91685 55.9381 6.77759 55.2418 6.77759C53.7099 6.77759 52.6886 7.84529 52.6886 9.51647C52.6886 9.51647 52.6886 17.176 52.6886 17.3617C52.8279 17.3617 54.0813 17.3617 54.2205 17.3617C54.2205 17.176 54.2205 9.51647 54.2205 9.51647C54.2205 8.40235 54.9633 8.3095 55.2418 8.3095C55.4275 8.3095 55.706 8.35592 55.8917 8.54161C56.1238 8.77372 56.2166 9.09867 56.2166 9.51647C56.2166 9.51647 56.2166 17.176 56.2166 17.3617C56.3559 17.3617 57.6093 17.3617 57.7486 17.3617C57.7486 17.176 57.7486 9.51647 57.7486 9.51647C57.7486 8.40235 58.4913 8.3095 58.7698 8.3095C58.9555 8.3095 59.2341 8.35592 59.4197 8.54161C59.6519 8.77372 59.7447 9.09867 59.7447 9.51647C59.7447 9.51647 59.7447 17.176 59.7447 17.3617C59.884 17.3617 61.1374 17.3617 61.2766 17.3617C61.2766 17.176 61.2766 9.51647 61.2766 9.51647C61.2766 8.63445 60.9981 7.93813 60.5339 7.42749C60.0697 7.0097 59.4662 6.77759 58.7234 6.77759C58.0735 6.77759 57.5165 6.96327 57.0522 7.38107Z" fill="#436FA2"/>
<path fill-rule="evenodd" clip-rule="evenodd" d="M68.3326 10.3985C67.822 9.84141 66.9864 9.3772 65.8258 9.3772C64.7117 9.3772 63.8761 9.84141 63.3655 10.3985C62.5763 11.2805 62.3906 12.4874 62.3906 13.4623C62.3906 14.3907 62.5299 15.6441 63.3655 16.5261C63.8761 17.0832 64.7117 17.5474 65.8258 17.5474C66.9864 17.5474 67.822 17.0832 68.3326 16.5261C69.1218 15.6441 69.3075 14.4372 69.3075 13.4623C69.261 12.4874 69.1218 11.2805 68.3326 10.3985ZM67.7291 13.7873C67.7291 14.53 67.7291 15.3656 67.1721 15.9691C66.9399 16.2012 66.5222 16.4797 65.8258 16.4797C65.1759 16.4797 64.7117 16.2012 64.526 15.9691C63.969 15.3656 63.969 14.53 63.969 13.7873V13.0909C63.969 12.3482 63.969 11.5126 64.526 10.9555C64.7581 10.7234 65.1759 10.3985 65.8258 10.3985C66.5222 10.3985 66.9864 10.677 67.1721 10.9555C67.7291 11.559 67.7291 12.3482 67.7291 13.0909V13.7873Z" fill="#436FA2"/>
<path fill-rule="evenodd" clip-rule="evenodd" d="M70.5609 9.51646H71.8607V10.2128C72.2321 9.93426 72.557 9.74857 72.9748 9.60931C73.4391 9.42362 73.764 9.3772 74.2282 9.3772C74.8781 9.3772 75.5745 9.51646 76.1315 10.1199C76.6886 10.7234 76.7814 11.4662 76.7814 12.1161V17.3153H75.3423V12.0232C75.3423 10.7698 74.5532 10.3985 73.8569 10.3985C73.2069 10.3985 72.5106 10.677 71.9536 11.1876V17.3153H70.5609V10.677V9.51646Z" fill="#436FA2"/>
<path fill-rule="evenodd" clip-rule="evenodd" d="M83.7912 15.8298C83.5126 15.9691 83.2341 16.0619 82.8627 16.2012C82.4449 16.3404 82.12 16.3869 81.6558 16.3869C80.913 16.3869 80.2631 16.1548 79.8917 15.737C79.6132 15.4584 79.3347 14.9478 79.3347 13.9729V13.7873H84.1625V13.4159C84.1625 12.1625 84.1161 11.1412 83.3269 10.3056C82.8163 9.74857 82.0271 9.3772 81.0523 9.3772C79.9382 9.3772 79.149 9.84141 78.6384 10.3985C77.8492 11.3269 77.7563 12.5339 77.7563 13.323C77.7563 14.2051 77.8956 15.5049 78.6848 16.3869C79.1954 16.9904 80.1238 17.501 81.4237 17.501C82.0271 17.501 82.6306 17.4546 83.2805 17.176C83.6055 17.0368 83.9768 16.8511 84.2554 16.7118L83.7912 15.8298ZM79.3347 12.5803C79.3347 11.6983 79.6132 11.1876 79.8453 10.9091C80.0774 10.677 80.4488 10.3985 81.0523 10.3985C81.4701 10.3985 81.8415 10.4913 82.1664 10.7698C82.677 11.2805 82.677 11.884 82.677 12.3946V12.7196H79.3811V12.5803H79.3347Z" fill="#436FA2"/>
<path fill-rule="evenodd" clip-rule="evenodd" d="M91.9149 9.51636L88.8511 18.7543C88.7582 19.1721 88.4333 19.822 88.1083 20.1933C87.6905 20.6576 87.1799 20.8432 86.5764 20.8432C86.1586 20.8432 85.7408 20.7504 85.323 20.5183C85.0909 20.379 84.8124 20.1933 84.6731 20.0077L85.323 19.1721C85.4159 19.2649 85.6016 19.4042 85.7408 19.497C85.9729 19.6363 86.2515 19.6827 86.4836 19.6827C86.9014 19.6827 87.1799 19.4506 87.3192 19.2649C87.4584 19.0792 87.6441 18.615 87.737 18.2901L87.9226 17.6866L84.6267 9.51636H86.1586L88.1083 14.4371C88.294 14.9013 88.5261 15.644 88.5725 15.8297H88.619C88.8511 14.9013 88.9903 14.5763 89.176 13.9728L90.5687 9.51636H91.9149Z" fill="#436FA2"/>
<path fill-rule="evenodd" clip-rule="evenodd" d="M31.706 16.8974L31.7524 16.851L31.7989 16.8974C32.3095 17.3152 32.8201 17.5009 33.5165 17.5009C35.0484 17.5009 36.0696 16.3868 36.0696 14.762C36.0696 14.762 36.0696 7.05601 36.0696 6.91675C35.9304 6.91675 34.677 6.91675 34.4913 6.91675C34.4913 7.05601 34.4913 14.762 34.4913 14.762C34.4913 15.8761 33.7486 15.969 33.5165 15.969C33.3308 15.969 33.0522 15.969 32.8666 15.7369C32.6344 15.5512 32.5416 15.1798 32.5416 14.762C32.5416 14.762 32.5416 7.05601 32.5416 6.91675C32.4023 6.91675 31.1489 6.91675 30.9633 6.91675C30.9633 7.05601 30.9633 14.762 30.9633 14.762C30.9633 15.8761 30.2205 15.969 29.942 15.969C29.7563 15.969 29.4778 15.969 29.2921 15.7369C29.06 15.5512 28.9671 15.1798 28.9671 14.762C28.9671 14.762 28.9671 7.05601 28.9671 6.91675C28.8279 6.91675 27.5745 6.91675 27.3888 6.91675C27.3888 7.05601 27.3888 14.762 27.3888 14.762C27.3888 15.5976 27.6673 16.3403 28.1315 16.8046C28.5958 17.2688 29.2457 17.5009 29.942 17.5009C30.6847 17.5473 31.2418 17.3152 31.706 16.8974Z" fill="#436FA2"/>
<path fill-rule="evenodd" clip-rule="evenodd" d="M43.265 15.8298C43.0329 15.9227 42.7079 16.0619 42.383 16.2012C41.9652 16.3404 41.6402 16.3869 41.176 16.3869C40.4333 16.3869 39.7834 16.1548 39.412 15.737C39.1799 15.4584 38.8549 14.9478 38.8549 13.9729V13.7873H43.6364V13.4159C43.6364 12.1625 43.59 11.1412 42.8472 10.3056C42.3366 9.74857 41.5474 9.3772 40.5261 9.3772C39.4584 9.3772 38.6693 9.84141 38.1586 10.3985C37.323 11.3269 37.2766 12.5339 37.2766 13.323C37.2766 14.2051 37.3695 15.5049 38.205 16.3869C38.7621 16.9904 39.6441 17.501 40.9439 17.501C41.5474 17.501 42.1509 17.4081 42.8008 17.176C43.1257 17.0832 43.4971 16.8511 43.7292 16.7118L43.265 15.8298ZM38.8549 12.5803C38.8549 11.6983 39.1335 11.1876 39.3656 10.9091C39.5513 10.677 39.9226 10.3985 40.5261 10.3985C40.9439 10.3985 41.3153 10.4913 41.6402 10.8163C42.1509 11.2805 42.1509 11.884 42.1509 12.441V12.766H38.8549V12.5803Z" fill="#436FA2"/>
<path fill-rule="evenodd" clip-rule="evenodd" d="M50.3211 10.1664C49.7641 9.6558 48.9749 9.37727 48.1857 9.37727C47.8144 9.37727 47.443 9.42369 47.1644 9.47012C46.9323 9.51654 46.6538 9.6558 46.4217 9.74865V6.68481H45.0291V16.6191C45.8646 17.1297 46.8395 17.4546 47.9536 17.4546C48.7892 17.4546 49.9033 17.269 50.6925 16.2013C51.3424 15.3192 51.4817 14.2515 51.4817 13.3231C51.4352 12.5804 51.3888 11.0949 50.3211 10.1664ZM47.9072 10.3985C48.4643 10.3985 49.0677 10.5842 49.3927 10.9556C49.9033 11.5127 49.9033 12.3018 49.9033 12.9982V13.6481C49.9033 14.9479 49.6712 15.5049 49.4855 15.7835C49.2534 16.062 48.7892 16.4334 48 16.4334C47.7215 16.4334 47.3501 16.3405 47.0716 16.2941C46.8859 16.2477 46.6074 16.1084 46.4217 15.9692V10.8628" fill="#436FA2"/>
</g>
<defs>
<clipPath id="clip0_51_91">
<rect width="91.9149" height="24" fill="white"/>
</clipPath>
</defs>
</svg>
