<svg width="76" height="13" viewBox="0 0 76 13" fill="none" xmlns="http://www.w3.org/2000/svg">
<path d="M70.3391 5.67317C69.9113 5.97133 69.2905 6.11873 68.441 6.11873H68.0723H67.5985L68.2445 2.62975H68.5719H68.864C69.5692 2.62975 70.0842 2.74324 70.4391 2.97358C70.7165 3.15422 71.0452 3.51182 71.0452 4.19041C71.0452 5.00801 70.6628 5.44787 70.3391 5.67317ZM20.0837 10.0519H13.5641L13.9855 7.77139H18.0748L18.5395 5.20275H14.4895L14.881 2.94571H21.3892L20.0837 10.0519ZM73.8512 0.98817C72.8926 0.331068 71.4421 0 69.5403 0H64.5595L62.708 10.0523H56.1834L56.6017 7.77173H60.5326L61 5.21014L57.0715 5.21719L57.4922 2.94638H61.5402L62.0788 0.000335585H53.8558L52.0984 9.53653H49.0832L50.8533 0.000335585H46.5545L44.7971 9.53653H41.8571L43.6289 0.000335585H39.3344L37.4783 10.0526H30.9073L31.3213 7.77206H35.2699L35.735 5.22525L31.7924 5.22156L32.2111 2.94638H36.3041L36.84 0.000335585H11.2218L9.76352 7.96648L6.85843 0H2.39975L0 13H4.2579L5.7101 4.81494L8.52956 13H23.791L25.6461 2.94604H28.0341L26.178 13H66.3354L67.4985 6.65294L69.3838 13H73.6441L71.6922 7.81404L72.1378 7.71767C73.1196 7.50748 73.8882 7.05452 74.4214 6.37593C74.9556 5.69096 75.2269 4.81158 75.2269 3.75525C75.2272 2.52499 74.778 1.62042 73.8512 0.98817Z" fill="#436FA2"/>
</svg>
