<svg width="61" height="22" viewBox="0 0 61 22" fill="none" xmlns="http://www.w3.org/2000/svg">
<path fill-rule="evenodd" clip-rule="evenodd" d="M14.7557 19.2891C16.6344 19.2891 18.6726 19.932 20.9292 21.9272C21.1553 22.1269 21.4563 21.8786 21.2586 21.6304C19.0415 18.8362 16.9908 18.3043 14.9457 17.8549C12.4435 17.3043 11.1571 15.8992 10.2604 14.3569C10.0821 14.0504 10.0017 14.1045 9.98575 14.4991C9.96564 14.981 9.99962 15.6198 10.1078 16.2481C10.0066 16.2522 9.9053 16.2515 9.80266 16.2515C6.22419 16.2515 3.32257 13.3555 3.32257 9.78325C3.32257 6.21171 6.22419 3.31633 9.80336 3.31633C13.3818 3.31633 16.2834 6.21171 16.2834 9.78325C16.2834 10.0378 16.271 10.2895 16.2418 10.5357C15.7689 10.4504 14.8375 10.4407 14.1842 10.4969C13.9387 10.5184 13.9734 10.6328 14.1592 10.6661C16.3015 11.0524 17.7724 12.3776 18.1094 14.782C18.1164 14.8375 18.1899 14.8534 18.2183 14.8056C19.1292 13.2889 19.609 11.5524 19.606 9.78325C19.606 4.38086 15.2168 0 9.80336 0C4.38918 0 0 4.38016 0 9.78325C0 15.187 4.38918 19.5679 9.80336 19.5679C11.2389 19.5679 12.6647 19.2891 14.7557 19.2891ZM15.4852 15.737C15.9214 16.1045 16.0539 16.5421 15.8237 16.8507C15.6954 17.0199 15.4873 17.1136 15.2376 17.1136C14.9941 17.1136 14.7582 17.0282 14.5712 16.8722C14.1745 16.5262 14.058 15.9658 14.3167 15.6475C14.4179 15.5227 14.5823 15.454 14.7792 15.454C15.0185 15.454 15.2695 15.5546 15.4852 15.737ZM17.4978 14.8021C17.5616 15.2307 17.4263 15.4082 17.2897 15.4082C17.1406 15.4082 16.9541 15.2349 16.7342 14.8916C16.5165 14.5532 16.4367 14.1648 16.5449 13.9685C16.6156 13.8388 16.7647 13.782 16.9527 13.8534C17.3168 13.99 17.4589 14.5462 17.4978 14.8021ZM31.0863 12.5621L29.9559 11.2049C29.9293 11.1729 29.9125 11.134 29.9073 11.0928C29.9021 11.0516 29.9088 11.0097 29.9266 10.9721C29.9443 10.9346 29.9724 10.9029 30.0076 10.8807C30.0428 10.8585 30.0835 10.8469 30.1251 10.8471H32.4892C32.6016 10.5128 32.6654 10.1557 32.6654 9.78394C32.6654 8.08486 31.3977 6.61948 29.6583 6.61948C27.919 6.61948 26.6513 8.08486 26.6513 9.78394C26.6513 11.483 27.919 12.9283 29.6583 12.9283C30.1854 12.9283 30.6681 12.7937 31.087 12.5614L31.0863 12.5621ZM36.2002 14.8541C36.3229 14.9901 36.2224 15.2078 36.0372 15.2078H33.4574C33.4055 15.2079 33.3543 15.1966 33.3073 15.1746C33.2603 15.1527 33.2187 15.1207 33.1855 15.0809L32.7486 14.5559C31.8285 15.1527 30.755 15.4697 29.6583 15.4686C26.5175 15.4686 23.9626 12.9186 23.9626 9.78394C23.9626 6.64931 26.5175 4.0993 29.6583 4.0993C32.7992 4.0993 35.3541 6.64931 35.3541 9.78394C35.3541 10.9143 35.0212 11.9671 34.4491 12.8534L36.2002 14.8541ZM60.0352 4.36213H57.929C57.8549 4.36232 57.7839 4.39182 57.7316 4.44419C57.6792 4.49657 57.6497 4.56755 57.6495 4.64161V14.9283C57.6495 15.083 57.7743 15.2078 57.929 15.2078H60.0352C60.1898 15.2078 60.3153 15.083 60.3153 14.9283V4.64092C60.3153 4.56661 60.2858 4.49535 60.2333 4.44281C60.1807 4.39026 60.1095 4.36075 60.0352 4.36075V4.36213ZM56.4914 4.36213H54.1362C54.0764 4.3619 54.0181 4.38083 53.9698 4.41615C53.9215 4.45146 53.8858 4.50131 53.8678 4.55839L52.0037 10.6376L49.9544 4.55146C49.9356 4.49594 49.8999 4.44772 49.8522 4.41362C49.8046 4.37952 49.7474 4.36126 49.6888 4.36144H48.0452C47.9865 4.36122 47.9292 4.37945 47.8814 4.41354C47.8336 4.44764 47.7978 4.49588 47.7789 4.55146L45.7303 10.6376L43.8661 4.55839C43.8483 4.50118 43.8127 4.45118 43.7644 4.41573C43.7161 4.38029 43.6577 4.36126 43.5978 4.36144H41.2419C41.1977 4.36152 41.1541 4.37205 41.1147 4.39217C41.0752 4.4123 41.0412 4.44145 41.0152 4.47725C40.9892 4.51272 40.9721 4.55391 40.9653 4.59735C40.9586 4.6408 40.9623 4.68523 40.9763 4.72692L44.4369 15.0192C44.475 15.1329 44.5825 15.2092 44.7025 15.2092H46.5722C46.6929 15.2092 46.7997 15.1329 46.8378 15.0199L48.867 9.00652L50.8955 15.0192C50.9336 15.1329 51.0411 15.2092 51.1611 15.2092H53.0315C53.1521 15.2092 53.2589 15.1329 53.2971 15.0192L56.7577 4.72692C56.7716 4.68527 56.7755 4.64089 56.7688 4.59747C56.7622 4.55404 56.7453 4.51283 56.7195 4.47725C56.6934 4.4414 56.6592 4.41222 56.6197 4.39209C56.5801 4.37196 56.5364 4.36146 56.4921 4.36144L56.4914 4.36213ZM40.0845 4.64161V14.9283C40.0845 15.083 39.9596 15.2078 39.8043 15.2078H37.6988C37.6246 15.2078 37.5535 15.1784 37.5009 15.126C37.4484 15.0736 37.4188 15.0025 37.4186 14.9283V4.64092C37.4186 4.48627 37.5435 4.36075 37.6988 4.36075H39.8043C39.9589 4.36075 40.0845 4.48558 40.0845 4.64092V4.64161Z" fill="#436FA2"/>
</svg>
